<svg width="0" height="0" style="position:absolute"><symbol viewBox="0 0 32 32" id="checkmark"><path stroke="#449FDB" d="M0 0"/><path d="M28.998 8.53l-2.134-2.133c-.394-.393-1.03-.393-1.423 0L12.647 19.192l-6.086-6.13c-.393-.393-1.03-.393-1.423 0l-2.134 2.134c-.393.394-.393 1.03 0 1.423l8.924 8.983c.393.393 1.03.393 1.423 0l15.648-15.65c.393-.39.393-1.03 0-1.422z"/></symbol><symbol viewBox="0 0 16 16" id="facebook"><path d="M9.025 5.242l.004-1.38c0-.72.048-1.104 1.08-1.104h1.905V0H9.283c-2.65 0-3.26 1.37-3.26 3.618l.004 1.624h-2.01V8h2.01v8h3V8h2.724l.293-2.758H9.025z"/></symbol><symbol viewBox="0 0 100 100" id="googleplus"><path d="M64.204 1.587H41.112c-10.29 0-17.413 2.256-23.824 7.552-5.042 4.35-8.05 10.67-8.05 16.91 0 9.615 7.33 19.832 20.912 19.832 1.306 0 2.752-.134 4.028-.253l-.188.456c-.546 1.308-1.063 2.542-1.063 4.468 0 3.75 1.81 6.063 3.558 8.3l.22.282-.39.027c-5.61.384-16.05 1.1-23.676 5.787C3.63 70.306 2.93 78.095 2.93 80.354c0 8.99 8.376 18.06 27.09 18.06 21.76 0 33.146-12.005 33.146-23.863.003-8.77-5.14-13.1-10.6-17.697l-4.604-3.582c-1.423-1.178-3.195-2.645-3.195-5.364 0-2.672 1.77-4.436 3.335-5.992l.163-.165c4.973-3.918 10.61-8.36 10.61-17.965 0-9.658-6.036-14.65-8.937-17.048h7.664c.094 0 .187-.026.266-.077l6.6-4.15c.188-.12.276-.348.214-.562-.06-.214-.257-.36-.48-.36zM36.2 93.122c-13.263 0-22.175-6.195-22.175-15.416 0-6.02 3.645-10.396 10.824-12.997 5.748-1.936 13.17-2.032 13.243-2.032 1.257 0 1.89 0 2.893.126 9.28 6.605 13.743 10.073 13.743 16.678-.002 8.414-7.102 13.64-18.53 13.64zm-.124-50.78c-11.132 0-15.752-14.632-15.752-22.467 0-3.984.906-7.042 2.77-9.35 2.023-2.532 5.487-4.167 8.825-4.167 10.22 0 15.872 13.738 15.872 23.233 0 1.5 0 6.056-3.148 9.22-2.117 2.114-5.56 3.533-8.568 3.533zM96.57 46.81H84.4V34.685c0-.276-.223-.5-.5-.5h-5.234c-.276 0-.5.224-.5.5V46.81H66.06c-.276 0-.5.224-.5.5v5.304c0 .276.224.5.5.5h12.106v12.203c0 .276.224.5.5.5H83.9c.277 0 .5-.224.5-.5V53.113h12.17c.275 0 .5-.224.5-.5V47.31c0-.277-.224-.5-.5-.5z"/></symbol><symbol viewBox="262.5 274.6 946.6 287.8" id="logo"><path d="M408.7 338.6h-36.2v-64h-57.9l-5.3 34.5c-1.9 9.8-6 17.4-12.3 22.6-5.6 4.6-13.6 8.1-24.3 10.5.2 0-3.2.4-10.2 1.3v40.2h24.8v100.2c0 27.8 5.9 47.6 17.8 59.4 12 11.9 32.2 17.8 60.7 17.8 15.7 0 30.9-2.1 45.9-6.2v-46.8c-3.5 1.1-6 1.7-7.4 2.1-3.3.7-6.6 1-9.8 1-8 0-13.9-1.9-17.5-5.7-3.9-4.1-5.8-11.2-5.8-21.3V383.7h37.5v-45.1zM599.4 332.2c-2.7 0-5.4.1-8 .4-10.3 1-19.5 4-27.9 9-3.1 1.9-6.1 4.1-8.9 6.6-6 5-11.2 11.4-15.7 19.1v-34c-6.5 1.5-14.2 2.8-22.9 3.7-10.4 1.1-21 1.6-31.8 1.6h-53.4v45.1h13.3c3.5 0 5.8 1.1 7 3.3 1.2 2.2 1.8 6.3 1.8 12.6v96.6c0 5.6-.7 9.4-2.3 11.3-1.2 1.7-3.4 2.4-6.5 2.4h-11.5V555h128.5v-45.1h-13.3c-3.2 0-5.4-.7-6.7-2.4-1.4-1.9-2.2-5.7-2.2-11.3V445l.8-11.1c3.1-29.7 14.9-46.4 35.3-50.1-.2.9-.4 1.8-.4 2.7-.1.4-.2.9-.2 1.3-.3 2.8-.3 5.6.2 8.3.5 3 1.3 5.9 2.7 8.7 2.8 5.8 7.1 10.4 13 13.9 6.3 3.8 14.1 5.9 23 6.1 5.8.2 11.3-.8 16.5-2.8 5.1-2 9.6-4.9 13.5-8.8 3.4-3.5 6.2-7.3 8.3-11.6 2.4-5.3 3.8-11.2 4.2-17.8.1-1.1.1-2.2.1-3.5 0-15.5-5.4-27.5-16.2-36-10-7.9-23.4-12-40.3-12.1z"/><path d="M871.4 509.9h-13.3c-3.4 0-5.6-1.1-6.9-3.4-1.3-2.3-1.9-6.5-1.9-12.6V338.6H738.1v45h16.3c3.1 0 5.3.8 6.5 2.4 1.5 1.9 2.2 5.6 2.2 11.2v65.4c0 15.6-2.3 27-7 34.3-4.7 7.1-12.1 10.7-22 10.7-8.9 0-15.2-2.3-19.1-7.2-4.1-5.1-6.1-13.8-6.1-26.3V338.6h-55.7c10.4 10.4 15.7 24.2 15.7 41.5 0 1.5 0 2.9-.1 4.3-.5 8.2-2.4 15.7-5.4 22.4 0 0-.1.1-.1.2-2.7 5.6-6.3 10.6-10.7 15.1l-.1.1c-5.1 5.1-11.2 9-18.1 11.6l.2-.1c-3.7 1.6-7.7 2.7-11.7 3.2v38.5c0 29.4 5.8 51 17.7 65 11.5 13.8 29.3 20.6 53.3 20.6 32.4 0 55.4-11.8 69.2-35.3v34.4c6.5-1.5 14.2-2.7 23-3.6 10.4-1.1 21-1.6 31.9-1.6h53.4v-45zM993.5 333.7c-36 0-64.9 10.5-86.5 31.4-21.5 20.6-32.3 48.2-32.3 82.5 0 34.8 10.4 62.4 31.2 82.9 21.4 21.3 51.4 31.9 89.8 31.9 52.4 0 87.9-17.8 106.4-53.5l-40.1-28.5c-9.7 20.5-26 30.8-49 30.8-15.4 0-27.3-3.9-35.7-11.6-8.8-7.9-13.5-19.8-14.3-35.6h141v-8.8c0-39.5-9.1-69.5-27.1-89.9-18.6-21.1-46.4-31.6-83.4-31.6zm.5 44.6c9.5 0 16.5 3.6 20.9 10.9 4.5 7.4 6.9 20 7.4 37.6h-60.6c.9-17.2 3.9-29.6 9-37.3 5.1-7.4 12.8-11.2 23.3-11.2z"/><path fill="#ff3800" d="M1195.7 542c8.9-8.5 13.4-19.6 13.4-33.6 0-13.7-4.5-24.8-13.4-33.4-8.8-8.6-20.4-12.9-34.8-12.9s-26 4.3-34.9 12.9c-8.7 8.5-13.1 19.6-13.1 33.4 0 14 4.4 25.2 13.1 33.6 8.7 8.6 20.4 12.8 34.9 12.8 14.4 0 26-4.2 34.8-12.8z"/></symbol><symbol viewBox="0 0 32 28" id="menu"><path d="M0 0h32v4H0zM0 12h32v4H0zM0 24h32v4H0z"/></symbol><symbol viewBox="0 0 16.002 16" id="twitter"><path d="M16 3.038c-.588.26-1.22.438-1.884.517.678-.406 1.197-1.05 1.443-1.815-.636.376-1.34.65-2.087.797-.598-.64-1.45-1.037-2.395-1.037-1.813 0-3.283 1.47-3.283 3.282 0 .257.03.508.085.748-2.728-.137-5.147-1.444-6.766-3.43C.83 2.584.67 3.148.67 3.75c0 1.14.58 2.144 1.46 2.732-.538-.018-1.044-.166-1.487-.412v.04c0 1.59 1.132 2.918 2.633 3.22-.275.074-.565.115-.865.115-.21 0-.416-.02-.617-.06.418 1.304 1.63 2.253 3.066 2.28-1.124.88-2.54 1.404-4.078 1.404-.265 0-.526-.017-.783-.046 1.452.932 3.177 1.476 5.03 1.476 6.04 0 9.34-5.002 9.34-9.34l-.01-.425c.644-.46 1.202-1.04 1.64-1.697z"/></symbol></svg>