<?xml version="1.0" encoding="utf-8"?><!DOCTYPE svg PUBLIC "-//W3C//DTD SVG 1.1//EN" "http://www.w3.org/Graphics/SVG/1.1/DTD/svg11.dtd"><svg width="132" height="100" viewBox="0 0 132 100" xmlns="http://www.w3.org/2000/svg" xmlns:xlink="http://www.w3.org/1999/xlink"><view id="checkmark" viewBox="100 0 32 32"/><svg width="32" height="32" viewBox="0 0 32 32" x="100"><path stroke="#449FDB" d="M0 0"/><path d="M28.998 8.53l-2.134-2.133c-.394-.393-1.03-.393-1.423 0L12.647 19.192l-6.086-6.13c-.393-.393-1.03-.393-1.423 0l-2.134 2.134c-.393.394-.393 1.03 0 1.423l8.924 8.983c.393.393 1.03.393 1.423 0l15.648-15.65c.393-.39.393-1.03 0-1.422z"/></svg><view id="facebook" viewBox="100 76 16 16"/><svg width="16" height="16" viewBox="0 0 16 16" x="100" y="76"><path d="M9.025 5.242l.004-1.38c0-.72.048-1.104 1.08-1.104h1.905V0H9.283c-2.65 0-3.26 1.37-3.26 3.618l.004 1.624h-2.01V8h2.01v8h3V8h2.724l.293-2.758H9.025z"/></svg><view id="googleplus" viewBox="0 0 100 100"/><svg width="100" height="100" viewBox="0 0 100 100"><path d="M64.204 1.587H41.112c-10.29 0-17.413 2.256-23.824 7.552-5.042 4.35-8.05 10.67-8.05 16.91 0 9.615 7.33 19.832 20.912 19.832 1.306 0 2.752-.134 4.028-.253l-.188.456c-.546 1.308-1.063 2.542-1.063 4.468 0 3.75 1.81 6.063 3.558 8.3l.22.282-.39.027c-5.61.384-16.05 1.1-23.676 5.787C3.63 70.306 2.93 78.095 2.93 80.354c0 8.99 8.376 18.06 27.09 18.06 21.76 0 33.146-12.005 33.146-23.863.003-8.77-5.14-13.1-10.6-17.697l-4.604-3.582c-1.423-1.178-3.195-2.645-3.195-5.364 0-2.672 1.77-4.436 3.335-5.992l.163-.165c4.973-3.918 10.61-8.36 10.61-17.965 0-9.658-6.036-14.65-8.937-17.048h7.664c.094 0 .187-.026.266-.077l6.6-4.15c.188-.12.276-.348.214-.562-.06-.214-.257-.36-.48-.36zM36.2 93.122c-13.263 0-22.175-6.195-22.175-15.416 0-6.02 3.645-10.396 10.824-12.997 5.748-1.936 13.17-2.032 13.243-2.032 1.257 0 1.89 0 2.893.126 9.28 6.605 13.743 10.073 13.743 16.678-.002 8.414-7.102 13.64-18.53 13.64zm-.124-50.78c-11.132 0-15.752-14.632-15.752-22.467 0-3.984.906-7.042 2.77-9.35 2.023-2.532 5.487-4.167 8.825-4.167 10.22 0 15.872 13.738 15.872 23.233 0 1.5 0 6.056-3.148 9.22-2.117 2.114-5.56 3.533-8.568 3.533zM96.57 46.81H84.4V34.685c0-.276-.223-.5-.5-.5h-5.234c-.276 0-.5.224-.5.5V46.81H66.06c-.276 0-.5.224-.5.5v5.304c0 .276.224.5.5.5h12.106v12.203c0 .276.224.5.5.5H83.9c.277 0 .5-.224.5-.5V53.113h12.17c.275 0 .5-.224.5-.5V47.31c0-.277-.224-.5-.5-.5z"/></svg><view id="menu" viewBox="100 32 32 28"/><svg width="32" height="28" viewBox="0 0 32 28" x="100" y="32"><path d="M0 0h32v4H0zM0 12h32v4H0zM0 24h32v4H0z"/></svg><view id="twitter" viewBox="100 60 16.002 16"/><svg width="16.002" height="16" viewBox="0 0 16.002 16" x="100" y="60"><path d="M16 3.038c-.588.26-1.22.438-1.884.517.678-.406 1.197-1.05 1.443-1.815-.636.376-1.34.65-2.087.797-.598-.64-1.45-1.037-2.395-1.037-1.813 0-3.283 1.47-3.283 3.282 0 .257.03.508.085.748-2.728-.137-5.147-1.444-6.766-3.43C.83 2.584.67 3.148.67 3.75c0 1.14.58 2.144 1.46 2.732-.538-.018-1.044-.166-1.487-.412v.04c0 1.59 1.132 2.918 2.633 3.22-.275.074-.565.115-.865.115-.21 0-.416-.02-.617-.06.418 1.304 1.63 2.253 3.066 2.28-1.124.88-2.54 1.404-4.078 1.404-.265 0-.526-.017-.783-.046 1.452.932 3.177 1.476 5.03 1.476 6.04 0 9.34-5.002 9.34-9.34l-.01-.425c.644-.46 1.202-1.04 1.64-1.697z"/></svg></svg>