<?xml version="1.0" encoding="utf-8"?>
<!-- Generator: Adobe Illustrator 18.1.1, SVG Export Plug-In . SVG Version: 6.00 Build 0)  -->
<svg version="1.1" id="Layer_1" xmlns="http://www.w3.org/2000/svg" xmlns:xlink="http://www.w3.org/1999/xlink" x="0px" y="0px"
     viewBox="262.5 274.6 946.6 287.8" enable-background="new 262.5 274.6 946.6 287.8" xml:space="preserve">
<g>
    <g>
        <path d="M408.7,338.6h-36.2v-64h-57.9l-5.3,34.5c-1.9,9.8-6,17.4-12.3,22.6c-5.6,4.6-13.6,8.1-24.3,10.5
            c0.2,0-3.2,0.4-10.2,1.3v40.2h24.8v100.2c0,27.8,5.9,47.6,17.8,59.4c12,11.9,32.2,17.8,60.7,17.8c15.7,0,30.9-2.1,45.9-6.2v-46.8
            c-3.5,1.1-6,1.7-7.4,2.1c-3.3,0.7-6.6,1-9.8,1c-8,0-13.9-1.9-17.5-5.7c-3.9-4.1-5.8-11.2-5.8-21.3V383.7h37.5L408.7,338.6
            L408.7,338.6z"/>
    </g>
    <g>
        <path d="M599.4,332.2c-2.7,0-5.4,0.1-8,0.4c-10.3,1-19.5,4-27.9,9c-3.1,1.9-6.1,4.1-8.9,6.6
            c-6,5-11.2,11.4-15.7,19.1v-34c-6.5,1.5-14.2,2.8-22.9,3.7c-10.4,1.1-21,1.6-31.8,1.6h-53.4v45.1h13.3c3.5,0,5.8,1.1,7,3.3
            c1.2,2.2,1.8,6.3,1.8,12.6v96.6c0,5.6-0.7,9.4-2.3,11.3c-1.2,1.7-3.4,2.4-6.5,2.4h-11.5V555h128.5v-45.1h-13.3
            c-3.2,0-5.4-0.7-6.7-2.4c-1.4-1.9-2.2-5.7-2.2-11.3V445l0.8-11.1c3.1-29.7,14.9-46.4,35.3-50.1c-0.2,0.9-0.4,1.8-0.4,2.7
            c-0.1,0.4-0.2,0.9-0.2,1.3c-0.3,2.8-0.3,5.6,0.2,8.3c0.5,3,1.3,5.9,2.7,8.7c2.8,5.8,7.1,10.4,13,13.9c6.3,3.8,14.1,5.9,23,6.1
            c5.8,0.2,11.3-0.8,16.5-2.8c5.1-2,9.6-4.9,13.5-8.8c3.4-3.5,6.2-7.3,8.3-11.6c2.4-5.3,3.8-11.2,4.2-17.8c0.1-1.1,0.1-2.2,0.1-3.5
            c0-15.5-5.4-27.5-16.2-36C629.7,336.4,616.3,332.3,599.4,332.2z"/>
    </g>
    <g>
        <path d="M871.4,509.9h-13.3c-3.4,0-5.6-1.1-6.9-3.4c-1.3-2.3-1.9-6.5-1.9-12.6V338.6H738.1v45h16.3
            c3.1,0,5.3,0.8,6.5,2.4c1.5,1.9,2.2,5.6,2.2,11.2v65.4c0,15.6-2.3,27-7,34.3c-4.7,7.1-12.1,10.7-22,10.7c-8.9,0-15.2-2.3-19.1-7.2
            c-4.1-5.1-6.1-13.8-6.1-26.3V338.6h-55.7c10.4,10.4,15.7,24.2,15.7,41.5c0,1.5,0,2.9-0.1,4.3c-0.5,8.2-2.4,15.7-5.4,22.4
            c0,0-0.1,0.1-0.1,0.2c-2.7,5.6-6.3,10.6-10.7,15.1c0,0,0,0-0.1,0.1c-5.1,5.1-11.2,9-18.1,11.6l0.2-0.1c-3.7,1.6-7.7,2.7-11.7,3.2
            v38.5c0,29.4,5.8,51,17.7,65c11.5,13.8,29.3,20.6,53.3,20.6c32.4,0,55.4-11.8,69.2-35.3v34.4c6.5-1.5,14.2-2.7,23-3.6
            c10.4-1.1,21-1.6,31.9-1.6h53.4L871.4,509.9L871.4,509.9z"/>
    </g>
    <g>
        <path d="M993.5,333.7c-36,0-64.9,10.5-86.5,31.4c-21.5,20.6-32.3,48.2-32.3,82.5c0,34.8,10.4,62.4,31.2,82.9
            c21.4,21.3,51.4,31.9,89.8,31.9c52.4,0,87.9-17.8,106.4-53.5l-40.1-28.5c-9.7,20.5-26,30.8-49,30.8c-15.4,0-27.3-3.9-35.7-11.6
            c-8.8-7.9-13.5-19.8-14.3-35.6h141v-8.8c0-39.5-9.1-69.5-27.1-89.9C1058.3,344.2,1030.5,333.7,993.5,333.7z M994,378.3
            c9.5,0,16.5,3.6,20.9,10.9c4.5,7.4,6.9,20,7.4,37.6h-60.6c0.9-17.2,3.9-29.6,9-37.3C975.8,382.1,983.5,378.3,994,378.3z"/>
    </g>
    <g>
        <path fill="#ff3800" d="M1195.7,542c8.9-8.5,13.4-19.6,13.4-33.6c0-13.7-4.5-24.8-13.4-33.4c-8.8-8.6-20.4-12.9-34.8-12.9
            s-26,4.3-34.9,12.9c-8.7,8.5-13.1,19.6-13.1,33.4c0,14,4.4,25.2,13.1,33.6c8.7,8.6,20.4,12.8,34.9,12.8
            C1175.3,554.8,1186.9,550.6,1195.7,542z"/>
    </g>
</g>
</svg>
